<svg width="40" height="40" viewBox="0 0 40 40" fill="none" xmlns="http://www.w3.org/2000/svg">
    <rect width="40" height="40" rx="8" fill="#000000"/>
    
    <circle cx="20" cy="20" r="12" fill="#2C3E50" fill-opacity="0.5"/>

    <path d="M12 32C12 25 15 22 20 22C25 22 28 25 28 32H12Z" fill="#5D3FD3"/>

    <path d="M16 22C16 28 18 36 20 36C22 36 24 28 24 22H16Z" fill="url(#logGradient)"/>
    
    <circle cx="20" cy="18" r="5" fill="#FFDBAC"/>
    
    <circle cx="18" cy="17.5" r="1" fill="#000000"/>
    <circle cx="22" cy="17.5" r="1" fill="#000000"/>
    
    <path d="M8 18L20 6L32 18H8Z" fill="#2C3E50"/>
    <path d="M17 6L20 3L23 6H17Z" fill="#FFD700"/> <defs>
        <linearGradient id="logGradient" x1="20" y1="22" x2="20" y2="36" gradientUnits="userSpaceOnUse">
            <stop offset="0%" stop-color="#2ECC71"/> <stop offset="50%" stop-color="#F1C40F"/> <stop offset="100%" stop-color="#E74C3C"/> </linearGradient>
    </defs>
</svg>